<svg width="510" height="230" viewBox="0 0 510 230" fill="none" xmlns="http://www.w3.org/2000/svg">
<g clip-path="url(#clip0_2_2)">
<path d="M51.5579 127.225H52.9698V137.364H45.3973C46.8519 141.044 47.5792 145.921 47.5792 151.996V153.151C47.5792 162.649 46.1032 169.152 43.1512 172.66C40.1992 176.168 35.6429 177.922 29.4823 177.922C27.0865 177.922 24.9046 177.665 22.9366 177.152C21.0541 178.521 20.1129 180.66 20.1129 183.569C20.1129 188.703 22.466 191.27 27.172 191.27H35.1295C45.7395 191.27 51.0446 196.639 51.0446 207.378C51.0446 218.116 45.7395 223.485 35.1295 223.485H23.835C13.3106 223.485 8.04834 218.095 8.04834 207.313C8.04834 199.955 10.5297 195.12 15.4925 192.81C13.4389 191.184 12.4121 188.232 12.4121 183.954C12.4121 179.676 14.2518 176.596 17.931 174.713C13.7384 171.205 11.6421 164.018 11.6421 153.151V151.996C11.6421 142.498 13.0966 135.995 16.0058 132.487C18.915 128.979 23.1719 127.225 28.7764 127.225C34.3808 127.225 38.6377 128.551 41.5469 131.204L51.5579 127.225ZM37.8248 155.461V149.686C37.8248 143.867 37.1189 139.888 35.7071 137.749C34.2953 135.61 32.2845 134.541 29.6748 134.541C27.0651 134.541 25.0329 135.61 23.5783 137.749C22.1237 139.888 21.3964 143.867 21.3964 149.686V155.461C21.3964 161.28 22.1237 165.258 23.5783 167.397C25.0329 169.537 27.0651 170.606 29.6748 170.606C32.2845 170.606 34.2953 169.537 35.7071 167.397C37.1189 165.258 37.8248 161.28 37.8248 155.461ZM35.8996 199.228H23.0649C19.2145 199.228 17.2893 201.901 17.2893 207.249C17.2893 212.597 19.2145 215.271 23.0649 215.271H35.8996C39.75 215.271 41.6752 212.597 41.6752 207.249C41.6752 201.901 39.75 199.228 35.8996 199.228ZM83.0029 127.225L85.5699 127.353L84.7998 138.263C83.6019 137.664 82.4468 137.364 81.3344 137.364C74.8315 137.364 71.5373 144.124 71.4517 157.643V198.457H61.569V129.15H67.6013L70.4249 140.958C72.1362 131.803 76.3289 127.225 83.0029 127.225ZM128.951 154.178V173.43C128.951 183.612 127.39 190.65 124.266 194.543C121.143 198.436 116.694 200.383 110.918 200.383C105.143 200.383 100.693 198.436 97.5703 194.543C94.4472 190.65 92.8856 183.612 92.8856 173.43V154.178C92.8856 143.996 94.4472 136.958 97.5703 133.065C100.693 129.171 105.143 127.225 110.918 127.225C116.694 127.225 121.143 129.171 124.266 133.065C127.39 136.958 128.951 143.996 128.951 154.178ZM119.068 175.227V152.381C119.068 140.915 116.373 135.182 110.983 135.182C105.421 135.182 102.64 140.915 102.64 152.381V175.227C102.64 186.692 105.421 192.425 110.983 192.425C116.373 192.425 119.068 186.692 119.068 175.227ZM189.403 198.457H179.391L170.15 144.552L160.91 198.457H151.027L138.32 129.15H148.075L156.417 181.002L165.145 129.15H175.028L184.012 180.874L192.355 129.15H201.981L189.403 198.457ZM214.045 137.108H207.628V129.15H214.43L217.896 112.08H223.8V129.15H232.912V137.108H223.8V185.366C223.8 189.901 225.04 192.168 227.522 192.168C229.147 192.168 230.859 191.484 232.655 190.115L234.581 197.687C231.671 199.484 228.677 200.383 225.596 200.383C217.896 200.383 214.045 194.693 214.045 183.312V137.108ZM253.704 162.649V198.457H243.822V103.481H253.191V137.364C255.245 130.605 259.48 127.225 265.897 127.225C270.347 127.225 273.748 129.193 276.101 133.129C278.454 137.065 279.63 144.252 279.63 154.691V198.457H269.748V151.226C269.748 140.53 267.651 135.182 263.459 135.182C257.127 135.182 253.875 144.338 253.704 162.649Z" fill="#0E542E"/>
<path fill-rule="evenodd" clip-rule="evenodd" d="M332.496 81.1939C331.387 82.8577 331.387 85.0762 331.11 87.0173L331.387 87.2946C331.387 88.1265 331.11 88.9584 331.11 90.0676C330.832 92.5633 331.11 95.891 331.11 98.664C331.11 100.605 330.555 102.824 330.555 104.765C330.555 106.151 330.832 107.538 330.832 109.201C330.832 109.479 330.555 109.756 330.832 110.033C331.11 111.143 331.11 114.193 331.11 116.134C331.11 117.243 330.832 118.352 330.832 119.462C330.832 119.462 331.11 119.462 331.11 119.739C331.11 120.294 330.832 120.848 330.832 121.68C331.11 123.067 331.11 125.84 331.11 127.781C331.11 131.663 330.832 135.823 330.555 139.705L330.832 139.982C330.832 141.369 330.278 143.864 330 145.805C330 147.469 329.723 148.578 329.723 150.52C329.723 151.074 330 151.074 330 151.906C330 153.015 329.446 154.124 329.168 155.234C328.891 156.343 329.168 157.175 329.168 158.284C328.891 160.502 328.337 162.444 328.059 164.662L328.337 164.939C328.337 166.603 327.782 169.099 327.505 171.04C327.227 174.645 327.227 178.25 327.505 181.855C327.505 182.132 327.227 182.409 327.505 182.687C327.505 182.964 327.782 182.964 327.782 182.964C327.782 185.182 327.505 187.123 327.782 189.065C327.782 191.006 327.782 192.947 328.059 194.888C328.059 195.72 328.337 196.829 328.337 197.661C328.337 198.77 328.337 199.879 328.337 200.711C328.337 200.711 328.059 200.711 328.059 200.989C328.059 201.543 328.059 202.652 327.782 203.484C327.782 203.484 327.505 203.484 327.505 203.762V204.039C327.505 204.316 327.227 204.316 327.227 204.316C326.95 204.594 326.95 205.148 326.673 205.425C326.673 205.425 326.118 205.425 326.118 205.703C325.841 205.98 325.841 206.812 325.009 206.812C323.068 210.971 317.799 212.081 314.194 209.585C313.917 209.308 313.917 209.03 313.639 209.03C313.362 208.753 312.53 208.476 312.253 207.921C311.698 207.089 310.866 205.425 310.312 204.316C310.312 204.039 309.757 203.762 309.757 203.762C309.48 202.93 309.757 202.098 309.48 200.989C309.48 200.711 308.925 200.434 308.925 200.434C308.925 200.157 309.203 199.879 308.648 199.879C308.371 199.602 309.203 198.493 308.925 197.938C308.648 197.661 308.648 197.384 308.648 197.106V196.552C308.093 195.997 308.371 194.333 308.371 193.224C308.371 193.224 308.093 193.224 308.093 192.947C308.093 191.283 308.648 189.342 308.371 187.401C308.371 187.123 308.093 187.123 308.093 186.846C308.093 185.182 308.093 183.241 308.093 181.577C308.093 181.3 308.093 181.023 308.093 180.746C308.093 179.359 307.816 176.863 307.816 175.199C307.539 171.317 308.648 165.494 308.925 160.78C309.203 158.839 308.925 156.62 308.925 154.679C309.48 148.856 310.589 142.755 310.866 136.932C310.866 133.327 311.144 128.058 311.144 123.621C311.144 121.957 310.866 120.571 311.144 118.907C311.144 118.352 311.421 117.798 311.421 117.521C311.421 117.521 311.144 117.521 311.144 117.243C311.144 116.411 311.421 115.579 311.421 114.47L311.144 114.193C311.144 113.638 311.421 112.806 311.421 111.697C311.421 109.756 311.144 107.815 311.144 105.874C311.144 101.714 311.698 97.8321 311.698 93.6725C311.698 91.7314 311.698 89.7903 311.698 87.8492C311.698 85.9081 311.976 83.6897 312.253 81.7485C312.53 79.8074 312.808 77.8663 311.976 76.2025C310.589 75.0933 308.648 75.6479 306.43 75.6479C304.766 75.6479 303.379 75.3706 301.438 75.3706C301.161 75.3706 300.884 75.0933 300.606 75.3706C300.052 75.3706 298.388 75.3706 297.001 75.0933C296.169 75.0933 294.783 75.0933 293.951 75.0933C293.674 75.0933 292.842 74.816 292.565 74.5387C291.455 74.2614 289.514 73.9841 288.405 73.7068C287.018 73.1522 285.355 72.3203 283.691 71.4883C282.027 70.9337 280.363 70.3791 278.977 69.5472C278.145 69.2699 277.59 68.7153 276.758 68.438C275.926 68.1607 275.094 67.8834 274.263 67.6061C274.263 67.6061 274.263 67.3288 273.985 67.3288H273.708C273.431 67.0515 272.876 66.7742 272.321 66.4969C272.044 66.4969 272.044 66.2196 271.767 66.2196L271.49 65.9423C271.212 65.665 270.658 65.665 270.38 65.3877C270.103 65.3877 270.38 65.1104 270.103 65.1104C269.548 65.1104 269.548 64.5558 268.994 64.0012H268.439C268.439 64.0012 268.439 63.4466 268.162 63.4466C267.885 63.1693 267.607 63.1693 267.33 62.892L267.053 62.3374C266.775 62.3374 266.498 62.3374 266.498 62.3374C266.221 62.0601 266.221 61.7828 265.943 61.7828C265.389 61.2282 265.389 60.9509 264.834 60.3962C262.339 57.3459 260.12 55.1275 257.902 51.7999C257.624 51.2453 257.347 50.6907 256.792 50.1361C256.515 49.5815 255.961 49.3041 255.683 48.7495C255.129 47.6403 254.574 46.5311 254.019 45.4219L253.465 45.1446C253.465 44.59 253.188 44.3127 252.91 43.7581C252.633 43.2035 252.356 42.6489 252.078 42.0943C252.078 42.0943 252.356 41.5397 252.078 41.5397C251.801 41.2624 251.801 40.9851 251.524 40.1532C251.246 39.3213 251.524 39.044 251.524 37.9347C251.524 36.8255 251.524 33.4979 252.356 32.1114C252.356 32.1114 252.633 32.1114 252.633 31.8341C252.633 31.8341 252.91 31.0022 253.188 31.0022C253.188 31.0022 253.742 31.0022 253.742 30.7249C253.742 30.4476 253.742 30.1703 253.742 30.1703C254.019 29.893 254.574 29.893 254.851 29.6157C255.129 29.3384 255.406 28.7838 255.683 28.7838C255.683 28.7838 256.238 29.0611 256.238 28.7838C257.07 27.9519 260.952 28.2292 263.448 28.5065C268.716 28.7838 272.599 29.0611 278.145 29.6157C280.641 29.893 283.414 30.1703 285.909 30.4476C287.573 30.7249 289.514 31.5568 291.178 32.3887C292.565 32.9433 293.674 33.2206 295.06 33.7752C295.06 33.7752 295.06 34.0525 295.338 34.0525C296.169 34.0525 296.169 34.3298 296.724 34.6071H297.279C297.556 34.8844 298.111 34.6071 298.388 35.1617V35.439C298.665 35.439 299.497 35.439 299.497 35.7163C299.497 35.9936 300.052 36.2709 300.606 36.5482C302.27 37.3801 303.934 37.9347 305.32 38.7667C305.32 38.7667 305.32 39.044 305.598 39.044C305.875 39.044 306.152 39.3213 306.43 39.5986C307.539 40.1532 309.203 40.7078 310.312 41.5397C310.589 41.5397 310.312 41.817 310.589 41.817C310.866 41.817 311.976 42.6489 312.253 42.9262C312.53 43.2035 312.808 43.4808 313.085 43.7581C313.362 44.0354 313.917 44.0354 313.917 44.3127C314.194 44.8673 314.749 45.1446 315.303 45.6992C315.581 45.9765 316.135 45.9765 316.413 46.2538C316.69 46.2538 316.413 46.5311 316.69 46.5311L317.244 46.8084C318.631 47.9176 319.186 49.3041 320.572 50.1361C321.959 49.8588 322.79 48.7495 323.622 47.6403C323.9 47.363 323.9 47.6403 323.9 47.363L324.177 46.8084C324.454 46.5311 324.732 46.5311 324.732 46.2538C325.009 45.6992 325.563 45.1446 325.841 44.8673C326.118 44.59 326.118 44.8673 326.118 44.59C326.118 44.3127 326.95 43.7581 327.227 43.4808C327.505 43.2035 327.782 42.9262 328.059 42.6489C328.337 42.3716 328.614 42.3716 328.614 42.0943V41.5397C328.614 41.5397 329.168 41.5397 329.168 41.2624C329.446 40.9851 329.446 40.7078 329.723 40.4305C330 40.1532 330.555 39.8759 331.11 39.3213C331.941 38.4894 333.051 37.3801 333.883 36.5482C334.16 36.2709 334.16 36.2709 334.16 35.9936L334.437 35.7163C334.714 35.439 334.714 35.1617 334.992 34.8844C335.269 34.6071 336.101 34.3298 336.378 33.7752C336.656 33.4979 336.933 33.2206 337.21 32.9433C337.765 32.3887 338.319 31.8341 338.874 31.0022C339.429 30.4476 339.706 30.1703 340.261 29.6157C341.092 28.7838 341.647 27.9519 342.756 27.1199C343.865 26.288 345.529 24.9015 346.916 23.7923C347.47 23.515 347.748 22.9604 348.302 22.6831C348.857 22.4058 349.412 22.4058 349.966 21.8512C350.521 21.5739 350.798 21.0193 351.353 20.742C351.907 20.4647 352.185 19.9101 352.739 19.6328C353.294 19.3555 353.848 19.0782 354.403 18.8009C354.68 18.8009 354.958 18.2463 354.958 18.2463C355.235 18.2463 355.512 18.2463 355.789 17.969C356.344 17.6917 356.621 17.1371 357.176 16.8598C357.453 16.5825 357.731 16.8598 358.008 16.5825C358.285 16.5825 358.562 16.0278 358.562 16.0278C359.672 15.4732 360.781 14.9186 361.89 14.6413C362.167 14.6413 362.445 14.0867 362.445 14.0867C362.722 13.8094 362.999 14.0867 363.277 13.8094C363.831 13.5321 364.386 13.2548 364.94 12.9775C365.218 12.9775 365.495 12.9775 365.772 12.7002C366.05 12.7002 366.327 12.1456 366.327 12.1456C366.604 11.8683 366.882 12.1456 367.159 11.8683C367.713 11.591 368.545 11.3137 369.655 11.0364C370.209 11.0364 370.487 10.7591 371.041 10.4818C373.537 10.2045 376.587 9.64989 379.637 9.37259C382.411 9.09529 385.184 9.09529 388.234 9.09529C391.284 9.37259 394.335 9.6499 397.662 9.9272C398.217 9.9272 398.217 9.6499 398.494 9.6499C400.712 9.6499 402.931 10.2045 404.595 11.0364H405.149C405.704 11.8683 407.645 11.8683 409.032 12.1456C409.032 12.1456 409.032 12.4229 409.309 12.4229C409.586 12.4229 409.863 12.4229 409.863 12.7002C410.695 13.2548 411.527 14.0867 412.636 14.6413C413.746 15.1959 415.132 14.9186 415.964 16.0278C415.964 16.5825 416.519 17.1371 416.796 17.6917C417.073 17.969 417.073 18.2463 417.351 18.8009C417.628 19.0782 417.628 19.3555 417.905 19.9101C418.46 20.742 417.905 22.9604 417.905 25.1788C417.905 27.3973 418.183 29.893 417.073 31.2795C417.073 31.5568 416.519 31.5568 416.519 31.8341C416.241 32.1114 416.241 32.666 415.964 32.9433C415.964 33.2206 415.41 33.2206 415.41 33.4979C415.132 34.0525 414.578 34.6071 414.3 35.1617C414.023 35.439 413.746 35.439 413.746 35.7163C413.468 35.9936 413.191 36.5482 412.914 36.8255C412.914 37.1028 412.359 37.6574 412.082 38.212C411.805 38.4893 411.805 39.044 411.527 39.3213C411.527 39.5986 410.973 39.5986 410.973 39.8759C410.695 40.1532 410.695 40.7078 410.418 40.9851C410.141 41.2624 409.863 41.2624 409.863 41.5397C409.032 42.6489 408.477 43.4808 407.645 44.59C407.645 44.8673 407.368 44.59 407.368 44.8673C407.368 45.1446 406.536 45.6992 406.259 45.9765C405.427 47.0857 404.595 47.9176 403.763 48.7495C402.654 49.5815 401.544 50.4134 400.712 51.2453V51.7999C400.435 52.0772 399.881 52.0772 399.326 52.6318C399.049 52.9091 398.494 53.741 398.217 54.0183L397.662 54.2956C397.385 54.5729 397.385 54.8502 396.83 55.4048C396.276 55.9594 395.998 56.2367 395.444 56.7913C395.166 57.0686 394.612 57.0686 394.335 57.3459C394.057 57.6232 394.057 57.9005 393.78 58.1778C393.503 58.4551 392.948 59.0097 392.393 59.287C390.452 60.9509 388.234 62.0601 386.293 63.7239C385.184 65.1104 382.411 67.6061 379.915 69.2699C378.806 70.1018 377.696 71.211 376.31 72.043C376.033 72.043 375.755 72.5976 375.755 72.5976C375.755 72.5976 375.201 72.3203 375.201 72.5976V72.8749C375.201 72.8749 374.646 72.5976 374.646 72.8749V73.1522C374.646 73.1522 374.091 72.8749 374.091 73.1522V73.4295C374.091 73.4295 373.537 73.1522 373.537 73.4295C373.26 73.7068 372.705 73.4295 371.873 73.9841C371.596 73.9841 371.596 74.5387 371.596 74.5387C371.318 74.5387 371.041 74.2614 371.041 74.5387C370.764 74.5387 370.764 75.0933 370.764 75.0933C370.764 75.0933 370.209 74.816 370.209 75.0933C369.655 75.6479 367.991 75.6479 366.882 76.2025C366.604 76.4798 366.05 77.0344 365.495 77.3117C365.495 77.3117 364.94 77.0344 364.94 77.3117C364.386 77.8663 364.109 78.1436 363.277 78.4209C362.999 78.4209 362.722 78.4209 362.722 78.6982C362.445 78.9755 361.613 78.6982 360.781 78.9755C360.504 78.9755 360.781 79.2528 360.504 79.2528C360.226 79.2528 359.949 79.8074 359.394 79.8074C358.84 79.8074 358.562 80.362 358.008 80.362H357.731C357.453 80.362 357.176 80.6393 356.899 80.6393C356.621 80.6393 356.344 80.9166 356.067 80.9166C355.789 80.9166 354.403 81.1939 353.571 81.1939C352.462 81.1939 351.63 81.4712 350.521 81.4712C349.689 81.4712 349.412 81.4712 348.302 81.4712C348.302 81.4712 348.302 81.7485 348.025 81.7485C347.193 81.7485 346.638 82.0258 345.529 82.0258C344.42 82.0258 343.588 82.0258 342.479 82.3031C339.151 81.4712 334.992 80.362 332.496 81.1939ZM392.116 24.0696C391.007 24.0696 389.898 23.7923 388.788 24.0696C387.957 24.0696 386.847 24.6242 386.57 24.6242C386.293 24.6242 386.293 24.6242 386.015 24.9015C385.738 25.1788 384.906 24.6242 384.906 24.6242C384.074 24.9015 382.688 25.1788 382.411 25.1788C381.856 25.1788 381.856 25.1788 381.579 25.4561H381.301C381.024 25.4561 381.024 25.7334 381.024 25.7334C379.36 26.288 376.864 26.5653 375.755 27.6746H375.201C374.923 27.6746 374.646 28.2292 374.646 28.2292C374.369 28.2292 374.091 28.2292 374.091 28.2292L373.814 28.7838C373.537 29.0611 373.26 28.7838 372.982 29.0611C372.428 29.3384 371.873 29.6157 371.318 29.893L371.041 30.1703C370.764 30.1703 370.487 30.1703 370.487 30.4476C367.991 31.5568 365.495 32.666 363.554 34.0525C361.613 35.1617 359.949 36.5482 358.562 37.3801V37.9347C357.731 38.4894 357.176 38.7667 356.621 39.5986C356.344 39.8759 356.344 39.8759 356.067 40.1532V40.7078C355.789 40.9851 355.235 41.2624 354.958 41.5397C354.403 42.0943 353.848 42.9262 353.294 43.4808C353.016 43.7581 352.462 44.0354 352.185 44.3127C351.907 44.59 351.907 45.1446 351.353 45.4219C351.075 45.6992 350.521 45.9765 350.243 46.2538C349.966 46.5311 349.412 46.8084 349.134 47.0857C348.857 47.363 348.58 47.9176 348.302 48.1949C348.025 48.4722 347.47 48.7495 347.193 49.0268C346.916 49.3041 346.361 49.3041 345.807 49.5814C345.529 49.5814 345.529 50.1361 345.529 50.1361C345.252 50.4134 344.975 50.4134 344.975 50.6907C343.588 50.4134 343.588 51.2453 343.311 51.5226H343.034V52.0772C342.756 52.3545 342.479 52.6318 342.202 52.9091C342.202 52.9091 341.924 53.741 341.647 53.741C341.092 54.2956 341.092 55.1275 340.815 55.6821H340.538V56.2367H340.261V56.7913C340.261 56.7913 339.706 56.7913 339.706 57.0686L339.151 57.9005C339.151 58.1778 338.874 57.9005 338.874 58.1778C338.597 58.7324 338.042 59.5643 337.765 60.1189H337.488V60.6736C337.21 61.2282 336.656 61.2282 336.378 61.7828C336.378 62.3374 335.824 62.6147 335.546 62.892C335.546 63.4466 334.437 64.0012 334.714 64.8331C336.656 66.7742 339.429 65.3877 341.37 65.1104C342.202 64.8331 343.034 64.8331 343.311 64.8331H343.865C344.975 64.8331 348.302 65.1104 348.857 64.5558H349.412V64.2785H349.966C350.798 64.0012 350.798 64.0012 351.353 63.4466H351.907L352.185 62.892H352.739L353.016 62.3374H353.571C353.848 62.3374 354.126 62.0601 354.126 61.7828C354.68 61.5055 355.235 61.2282 355.512 60.9509C355.789 60.6736 356.067 60.6735 356.621 60.3962C356.899 60.3962 357.176 60.3962 357.176 60.1189C357.453 60.1189 357.731 59.5643 357.731 59.5643C358.562 59.287 359.117 59.287 359.394 59.0097C359.672 58.7324 359.949 58.7324 360.504 58.4551C360.781 58.4551 361.058 58.1778 361.058 58.1778C361.613 57.9005 362.167 57.3459 362.722 57.3459C362.999 57.3459 362.999 57.0686 362.999 57.0686C363.554 56.7913 363.831 57.0686 364.386 56.7913L364.663 56.514C365.218 56.2367 365.218 55.9594 365.772 55.6821C365.772 55.6821 366.327 55.9594 366.327 55.6821C366.604 55.6821 366.882 55.4048 366.882 55.1275C367.713 54.5729 368.268 53.741 369.1 53.1864C371.318 51.2453 374.091 49.0268 376.31 47.363C376.864 46.8084 377.419 46.8084 377.974 46.2538C378.528 45.9765 378.528 45.4219 379.083 44.8673C379.36 44.59 380.192 44.3127 380.469 43.7581C380.747 43.2035 381.024 42.9262 381.579 42.3716C381.856 41.817 382.688 41.5397 382.965 40.9851C383.797 40.1532 384.629 39.3213 385.461 38.4893C385.738 37.9347 386.57 37.9347 386.847 37.3801C387.125 37.1028 387.125 36.8255 387.402 36.5482L387.957 36.2709V35.7163C388.234 35.439 389.066 35.1617 389.343 34.6071C389.62 34.3298 389.62 34.0525 389.898 33.7752C389.898 33.4979 390.452 33.4979 390.452 33.2206C390.73 32.9433 390.73 32.666 391.007 32.3887C391.561 31.8341 391.839 31.5568 392.116 31.0022C392.116 30.7249 392.393 30.4476 392.393 30.4476C392.393 30.1703 392.671 30.4476 392.671 30.1703C393.225 29.3384 393.503 28.2292 394.057 27.6746C394.057 27.3973 394.612 27.3973 394.612 27.1199C394.889 26.5653 395.166 26.0107 395.444 25.4561C395.721 24.9015 396.553 24.3469 396.276 23.515C395.166 23.7923 393.503 24.0696 392.116 24.0696ZM308.371 56.514C308.093 56.2367 307.816 56.2367 307.539 55.9594C307.262 55.6821 307.262 55.1275 306.984 54.8502C306.707 54.5729 306.43 54.5729 306.152 54.2956C306.152 54.2956 306.152 54.0183 305.875 54.0183C305.598 53.741 305.598 53.741 305.32 53.741C304.766 53.4637 304.211 52.6318 303.934 52.6318C303.379 52.6318 303.102 52.0772 302.825 51.7999C302.547 51.7999 302.27 51.5226 302.27 51.5226C301.715 51.5226 301.438 50.968 301.161 50.6907C300.884 50.4134 300.329 50.4134 300.052 50.1361C299.774 50.1361 299.774 49.5814 299.497 49.5814C299.22 49.3041 298.665 49.3041 298.388 49.0268C297.833 48.7495 297.001 48.1949 297.001 48.1949C296.447 47.9176 296.169 47.9176 295.892 47.6403C295.615 47.6403 295.338 47.6403 295.338 47.6403C292.565 46.5311 288.96 45.6992 286.741 44.59C285.632 44.3127 285.355 44.0354 285.077 43.7581C285.077 43.4808 283.968 43.7581 283.968 43.4808V43.2035C283.968 42.9262 282.859 43.2035 282.859 42.9262C281.195 42.3716 278.977 41.5397 277.313 41.5397C277.036 41.5397 277.036 41.817 276.758 41.817C276.758 42.0943 276.758 42.3716 276.758 42.6489C277.313 44.0354 278.699 45.6992 279.254 46.8084H279.809C280.363 47.363 280.918 48.1949 281.472 48.7495C282.027 49.3041 282.859 50.6907 283.414 50.968C283.691 50.968 283.414 51.2453 283.691 51.2453C283.968 51.5226 284.523 51.5226 284.8 51.7999V52.0772H285.355C286.187 52.6318 287.296 53.1864 287.85 53.4637C288.128 53.4637 288.128 53.741 288.128 53.741C288.96 54.0183 290.069 54.2956 290.901 54.5729C292.01 54.8502 292.842 55.1275 293.951 55.6821V55.9594C293.951 56.2367 295.06 55.9594 295.06 56.2367C298.111 57.0686 303.657 58.7324 306.707 58.1778C307.816 57.9005 308.371 58.4551 309.203 58.1778C309.203 57.9005 309.48 57.6232 309.757 57.6232C309.203 57.9005 308.648 57.0686 308.371 56.514Z" fill="#16A858"/>
<path d="M356.791 141.172H350.374V133.215H357.176L360.642 116.145H366.546V133.215H375.658V141.172H366.546V189.431C366.546 193.966 367.786 196.233 370.268 196.233C371.893 196.233 373.605 195.549 375.402 194.18L377.327 201.752C374.418 203.549 371.423 204.447 368.343 204.447C360.642 204.447 356.791 198.757 356.791 187.377V141.172ZM408.002 131.29L410.569 131.418L409.799 142.328C408.601 141.729 407.446 141.429 406.333 141.429C399.83 141.429 396.536 148.189 396.451 161.708V202.522H386.568V133.215H392.6L395.424 145.023C397.135 135.867 401.328 131.29 408.002 131.29ZM453.693 184.554C453.094 191.998 451.34 197.174 448.431 200.084C445.522 202.993 441.308 204.447 435.789 204.447C430.27 204.447 425.906 202.501 422.697 198.608C419.489 194.714 417.884 187.677 417.884 177.495V158.243C417.884 148.06 419.489 141.023 422.697 137.129C425.906 133.236 430.42 131.29 436.238 131.29C442.056 131.29 446.463 133.215 449.458 137.065C452.453 140.916 453.95 147.975 453.95 158.243V171.976H427.639V179.291C427.639 190.757 430.377 196.49 435.853 196.49C438.506 196.49 440.559 195.549 442.014 193.666C443.468 191.784 444.495 188.276 445.094 183.142L453.693 184.554ZM427.639 156.446V163.761H444.067V156.446C444.067 144.98 441.372 139.247 435.981 139.247C430.42 139.247 427.639 144.98 427.639 156.446ZM502.337 184.554C501.738 191.998 499.984 197.174 497.074 200.084C494.165 202.993 489.951 204.447 484.432 204.447C478.913 204.447 474.55 202.501 471.341 198.608C468.132 194.714 466.528 187.677 466.528 177.495V158.243C466.528 148.06 468.132 141.023 471.341 137.129C474.55 133.236 479.063 131.29 484.882 131.29C490.7 131.29 495.107 133.215 498.101 137.065C501.096 140.916 502.593 147.975 502.593 158.243V171.976H476.282V179.291C476.282 190.757 479.02 196.49 484.496 196.49C487.149 196.49 489.203 195.549 490.657 193.666C492.112 191.784 493.139 188.276 493.737 183.142L502.337 184.554ZM476.282 156.446V163.761H492.711V156.446C492.711 144.98 490.015 139.247 484.625 139.247C479.063 139.247 476.282 144.98 476.282 156.446Z" fill="#0E542E"/>
</g>
<defs>
<clipPath id="clip0_2_2">
<rect width="510" height="230" fill="white"/>
</clipPath>
</defs>
</svg>
